# xmcd CD database file
# Copyright (C) 1993-1996 Ti Kan
#
# Track frame offsets:
#	150
#	22525
#	32671
#	49728
#	61186
#	81092
#	102791
#	113053
#	131839
#	146954
#	174051
#	188561
#	207051
#	217618
#	229361
#	244590
#
# Disc length: 3513 seconds
#
# Revision: 1
# Processed by: cddbd v1.4b41PL1 Copyright (c) Steve Scherf et al.
# Submitted via: CDValet v3.01 - Copyright (c) 1997 Greg Leichner
#
DISCID=c60db710
DTITLE=Biersdorf and Kolbe - First Time Through
DYEAR=1900
DGENRE=
TTITLE0=Broke Down Engine
TTITLE1=Chicken Ala Blues
TTITLE2=Keep On Drinkin'
TTITLE3=Barbecue Blues
TTITLE4=Dyin' Crapshooters Blues
TTITLE5=Diggin' Uncle Sam's Backyard
TTITLE6=The Suburbs
TTITLE7=Ramblin' Blues
TTITLE8=Cocaine
TTITLE9=Preachin' Blues
TTITLE10=Duct Tape Blues
TTITLE11=Prodigal Son
TTITLE12=Rag Mama
TTITLE13=Hard Times - Killin' Floor
TTITLE14=Wake Up The Devil
TTITLE15=Big Legged Women
EXTD=
EXTT0=
EXTT1=
EXTT2=
EXTT3=
EXTT4=
EXTT5=
EXTT6=
EXTT7=
EXTT8=
EXTT9=
EXTT10=
EXTT11=
EXTT12=
EXTT13=
EXTT14=
EXTT15=
PLAYORDER=
